<svg width="500" height="250" viewBox="0 0 500 250" fill="none" xmlns="http://www.w3.org/2000/svg">
<path d="M136.754 123.029C135.504 123.029 134.535 122.685 133.858 122.008C133.175 121.331 132.837 120.352 132.837 119.07V96.5911C132.837 95.3151 133.175 94.3359 133.858 93.6536C134.535 92.9766 135.514 92.6328 136.795 92.6328H147.274C150.675 92.6328 153.306 93.4661 155.17 95.1328C157.03 96.7891 157.962 99.0911 157.962 102.049C157.962 104.289 157.399 106.169 156.274 107.695C155.149 109.211 153.524 110.268 151.399 110.862C152.983 111.279 154.259 112.372 155.233 114.133L157.358 117.966C157.816 118.815 158.024 119.628 157.983 120.404C157.941 121.169 157.634 121.799 157.066 122.299C156.493 122.784 155.655 123.029 154.545 123.029C153.446 123.029 152.545 122.81 151.837 122.383C151.139 121.94 150.53 121.216 150.004 120.216L146.129 113.112C145.78 112.487 145.342 112.06 144.816 111.82C144.285 111.57 143.681 111.445 143.004 111.445H140.67V119.07C140.67 120.352 140.337 121.331 139.67 122.008C139.004 122.685 138.03 123.029 136.754 123.029ZM140.67 105.924H145.858C148.951 105.924 150.504 104.706 150.504 102.258C150.504 99.8411 148.951 98.6328 145.858 98.6328H140.67V105.924Z" fill="black"/>
<path d="M167.623 123.029C166.373 123.029 165.404 122.685 164.727 122.008C164.045 121.331 163.707 120.336 163.707 119.029V96.2578C163.707 94.9557 164.045 93.9609 164.727 93.2786C165.404 92.6016 166.373 92.2578 167.623 92.2578C168.873 92.2578 169.837 92.6016 170.519 93.2786C171.196 93.9609 171.54 94.9557 171.54 96.2578V104.216H183.936V96.2578C183.936 94.9557 184.274 93.9609 184.957 93.2786C185.634 92.6016 186.602 92.2578 187.852 92.2578C189.102 92.2578 190.061 92.6016 190.727 93.2786C191.394 93.9609 191.727 94.9557 191.727 96.2578V119.029C191.727 120.336 191.394 121.331 190.727 122.008C190.061 122.685 189.102 123.029 187.852 123.029C186.571 123.029 185.602 122.685 184.936 122.008C184.269 121.331 183.936 120.336 183.936 119.029V110.654H171.54V119.029C171.54 120.336 171.207 121.331 170.54 122.008C169.873 122.685 168.899 123.029 167.623 123.029Z" fill="black"/>
<path d="M212.461 123.107C209.42 123.107 206.753 122.461 204.461 121.169C202.18 119.878 200.404 118.076 199.128 115.753C197.847 113.419 197.211 110.706 197.211 107.607C197.211 104.497 197.842 101.784 199.107 99.4609C200.368 97.1432 202.149 95.3464 204.441 94.0651C206.743 92.7891 209.42 92.1484 212.461 92.1484C215.487 92.1484 218.149 92.7891 220.441 94.0651C222.732 95.3464 224.514 97.1432 225.795 99.4609C227.071 101.784 227.711 104.497 227.711 107.607C227.711 110.706 227.071 113.419 225.795 115.753C224.514 118.076 222.732 119.878 220.441 121.169C218.149 122.461 215.487 123.107 212.461 123.107ZM212.461 116.565C214.67 116.565 216.404 115.784 217.67 114.211C218.93 112.628 219.566 110.43 219.566 107.607C219.566 104.805 218.941 102.622 217.691 101.065C216.441 99.4974 214.696 98.7109 212.461 98.7109C210.211 98.7109 208.461 99.4974 207.211 101.065C205.961 102.622 205.336 104.805 205.336 107.607C205.336 110.43 205.961 112.628 207.211 114.211C208.461 115.784 210.211 116.565 212.461 116.565Z" fill="black"/>
<path d="M237.236 122.654C234.512 122.654 233.152 121.31 233.152 118.612V96.6745C233.152 93.9818 234.512 92.6328 237.236 92.6328H245.59C250.783 92.6328 254.809 93.9401 257.673 96.5495C260.548 99.1641 261.986 102.852 261.986 107.612C261.986 112.393 260.548 116.091 257.673 118.716C254.809 121.341 250.783 122.654 245.59 122.654H237.236ZM240.986 116.299H245.069C248.053 116.299 250.262 115.586 251.694 114.154C253.121 112.727 253.84 110.544 253.84 107.612C253.84 104.695 253.116 102.529 251.673 101.112C250.225 99.6953 248.027 98.987 245.069 98.987H240.986V116.299Z" fill="black"/>
<path d="M271.511 122.654C268.787 122.654 267.428 121.31 267.428 118.612V96.6745C267.428 93.9818 268.787 92.6328 271.511 92.6328H285.949C287.99 92.6328 289.011 93.6276 289.011 95.612C289.011 97.6536 287.99 98.6745 285.949 98.6745H274.928V104.383H285.011C287.053 104.383 288.074 105.393 288.074 107.404C288.074 109.419 287.053 110.424 285.011 110.424H274.928V116.612H285.949C287.99 116.612 289.011 117.622 289.011 119.633C289.011 121.648 287.99 122.654 285.949 122.654H271.511Z" fill="black"/>
<path d="M311.284 123.029C310.034 123.029 309.065 122.685 308.388 122.008C307.706 121.331 307.367 120.336 307.367 119.029V96.2578C307.367 94.9557 307.706 93.9609 308.388 93.2786C309.065 92.6016 310.034 92.2578 311.284 92.2578C312.534 92.2578 313.497 92.6016 314.18 93.2786C314.857 93.9609 315.201 94.9557 315.201 96.2578V119.029C315.201 120.336 314.867 121.331 314.201 122.008C313.534 122.685 312.56 123.029 311.284 123.029Z" fill="black"/>
<path d="M332.606 123.107C330.882 123.107 329.106 122.93 327.273 122.586C325.439 122.227 323.866 121.721 322.564 121.065C321.799 120.706 321.257 120.211 320.939 119.586C320.632 118.961 320.523 118.315 320.606 117.648C320.689 116.982 320.924 116.388 321.314 115.857C321.715 115.331 322.241 114.977 322.898 114.794C323.549 114.617 324.294 114.706 325.127 115.065C326.195 115.607 327.408 116.018 328.773 116.294C330.132 116.56 331.408 116.69 332.606 116.69C334.481 116.69 335.794 116.44 336.544 115.94C337.304 115.44 337.689 114.826 337.689 114.086C337.689 113.435 337.424 112.914 336.898 112.523C336.366 112.122 335.439 111.773 334.106 111.482L329.127 110.419C323.721 109.268 321.023 106.451 321.023 101.961C321.023 100.003 321.554 98.2891 322.627 96.8151C323.695 95.3307 325.179 94.1849 327.085 93.3776C328.986 92.5599 331.195 92.1484 333.71 92.1484C335.195 92.1484 336.695 92.3151 338.21 92.6484C339.721 92.9818 341.033 93.4766 342.148 94.1276C343.007 94.5755 343.549 95.1901 343.773 95.9818C343.991 96.763 343.96 97.5182 343.669 98.2526C343.387 98.9922 342.887 99.5339 342.169 99.8776C341.445 100.211 340.528 100.148 339.419 99.6901C338.57 99.3307 337.632 99.0599 336.606 98.8776C335.59 98.6849 334.596 98.5859 333.627 98.5859C332.044 98.5859 330.82 98.8672 329.96 99.4193C329.111 99.9766 328.689 100.69 328.689 101.565C328.689 102.19 328.945 102.706 329.46 103.107C329.971 103.497 330.882 103.836 332.189 104.128L337.127 105.19C342.611 106.357 345.356 109.107 345.356 113.44C345.356 115.414 344.825 117.122 343.773 118.565C342.715 120.013 341.236 121.128 339.335 121.919C337.429 122.711 335.189 123.107 332.606 123.107Z" fill="black"/>
<path d="M353.947 122.648C352.665 122.648 351.686 122.305 351.009 121.607C350.327 120.914 349.988 119.94 349.988 118.69V96.5443C349.988 95.2682 350.327 94.2891 351.009 93.6068C351.686 92.9297 352.655 92.5859 353.905 92.5859C355.155 92.5859 356.118 92.9297 356.801 93.6068C357.478 94.2891 357.822 95.2682 357.822 96.5443V116.128H368.217C369.285 116.128 370.113 116.414 370.697 116.982C371.28 117.555 371.572 118.352 371.572 119.378C371.572 120.419 371.28 121.227 370.697 121.794C370.113 122.367 369.285 122.648 368.217 122.648H353.947Z" fill="black"/>
<path d="M377.102 123.029C375.768 123.029 374.789 122.581 374.164 121.674C373.539 120.773 373.539 119.633 374.164 118.258L384.768 95.4453C385.279 94.3359 385.904 93.5286 386.643 93.0286C387.378 92.5182 388.247 92.2578 389.247 92.2578C390.206 92.2578 391.049 92.5182 391.789 93.0286C392.539 93.5286 393.164 94.3359 393.664 95.4453L404.268 118.258C404.919 119.664 404.945 120.81 404.352 121.695C403.768 122.586 402.836 123.029 401.56 123.029C400.419 123.029 399.544 122.779 398.935 122.279C398.32 121.768 397.773 120.94 397.289 119.799L395.935 116.57H382.518L381.143 119.799C380.643 120.94 380.122 121.768 379.581 122.279C379.039 122.779 378.211 123.029 377.102 123.029ZM389.164 100.799L385.06 110.57H393.331L389.247 100.799H389.164Z" fill="black"/>
<path d="M412.669 123.029C410.221 123.029 409.002 121.799 409.002 119.341V96.1328C409.002 94.8828 409.314 93.9245 409.939 93.2578C410.564 92.5911 411.382 92.2578 412.398 92.2578C413.314 92.2578 414.012 92.4349 414.502 92.7786C415.002 93.112 415.575 93.6745 416.231 94.4661L428.544 109.841V95.9036C428.544 93.4766 429.752 92.2578 432.169 92.2578C433.361 92.2578 434.257 92.5807 434.856 93.2161C435.465 93.8568 435.773 94.7526 435.773 95.9036V119.508C435.773 120.581 435.486 121.435 434.919 122.07C434.361 122.706 433.596 123.029 432.627 123.029C431.669 123.029 430.908 122.862 430.356 122.529C429.799 122.185 429.21 121.612 428.585 120.82L416.273 105.445V119.341C416.273 121.799 415.07 123.029 412.669 123.029Z" fill="black"/>
<path d="M446.169 122.654C443.445 122.654 442.086 121.31 442.086 118.612V96.6745C442.086 93.9818 443.445 92.6328 446.169 92.6328H454.523C459.716 92.6328 463.742 93.9401 466.607 96.5495C469.482 99.1641 470.919 102.852 470.919 107.612C470.919 112.393 469.482 116.091 466.607 118.716C463.742 121.341 459.716 122.654 454.523 122.654H446.169ZM449.919 116.299H454.003C456.987 116.299 459.195 115.586 460.628 114.154C462.055 112.727 462.773 110.544 462.773 107.612C462.773 104.695 462.049 102.529 460.607 101.112C459.159 99.6953 456.961 98.987 454.003 98.987H449.919V116.299Z" fill="black"/>
<path d="M135.738 159.997C134.791 159.997 134.322 159.518 134.322 158.56V145.956C134.322 145.013 134.785 144.539 135.718 144.539C136.645 144.539 137.113 145.013 137.113 145.956V157.622H143.447C144.249 157.622 144.655 158.013 144.655 158.789C144.655 159.596 144.249 159.997 143.447 159.997H135.738Z" fill="black"/>
<path d="M153.907 160.211C152.417 160.211 151.12 159.888 150.011 159.232C148.896 158.581 148.037 157.664 147.427 156.482C146.813 155.289 146.511 153.893 146.511 152.294C146.511 150.685 146.813 149.289 147.427 148.107C148.037 146.93 148.891 146.018 149.99 145.378C151.099 144.727 152.407 144.398 153.907 144.398C155.407 144.398 156.703 144.727 157.802 145.378C158.912 146.018 159.771 146.93 160.386 148.107C160.995 149.289 161.302 150.68 161.302 152.273C161.302 153.888 160.995 155.289 160.386 156.482C159.771 157.664 158.912 158.581 157.802 159.232C156.703 159.888 155.407 160.211 153.907 160.211ZM153.907 157.815C155.323 157.815 156.417 157.331 157.198 156.357C157.99 155.388 158.386 154.034 158.386 152.294C158.386 150.544 157.995 149.19 157.219 148.232C156.438 147.273 155.334 146.794 153.907 146.794C152.49 146.794 151.386 147.273 150.594 148.232C149.813 149.19 149.427 150.544 149.427 152.294C149.427 154.034 149.813 155.388 150.594 156.357C151.386 157.331 152.49 157.815 153.907 157.815Z" fill="black"/>
<path d="M165.882 160.167C165.007 160.167 164.57 159.719 164.57 158.813V145.833C164.57 145.375 164.679 145.031 164.903 144.792C165.122 144.557 165.414 144.438 165.778 144.438C166.111 144.438 166.361 144.5 166.528 144.625C166.705 144.75 166.908 144.958 167.132 145.25L174.924 155.354V145.771C174.924 144.885 175.361 144.438 176.236 144.438C177.096 144.438 177.528 144.885 177.528 145.771V158.875C177.528 159.281 177.424 159.599 177.216 159.833C177.018 160.052 176.747 160.167 176.403 160.167C176.07 160.167 175.799 160.104 175.591 159.979C175.393 159.854 175.184 159.646 174.966 159.354L167.153 149.208V158.813C167.153 159.719 166.726 160.167 165.882 160.167Z" fill="black"/>
<path d="M188.717 160.211C187.008 160.211 185.571 159.893 184.404 159.253C183.237 158.617 182.347 157.706 181.737 156.523C181.123 155.346 180.821 153.951 180.821 152.336C180.821 150.711 181.133 149.31 181.758 148.128C182.383 146.935 183.279 146.018 184.446 145.378C185.623 144.727 187.04 144.398 188.696 144.398C189.514 144.398 190.331 144.497 191.154 144.69C191.972 144.888 192.743 145.221 193.467 145.69C193.784 145.872 193.972 146.122 194.029 146.44C194.081 146.747 194.034 147.039 193.883 147.315C193.743 147.596 193.529 147.789 193.237 147.898C192.946 148.013 192.623 147.961 192.279 147.753C191.722 147.435 191.159 147.206 190.592 147.065C190.019 146.914 189.389 146.836 188.696 146.836C187.071 146.836 185.831 147.31 184.987 148.253C184.154 149.201 183.737 150.56 183.737 152.336C183.737 154.128 184.165 155.492 185.029 156.419C185.889 157.352 187.159 157.815 188.842 157.815C189.326 157.815 189.821 157.784 190.321 157.711C190.821 157.628 191.321 157.503 191.821 157.336V153.753H189.425C188.659 153.753 188.279 153.409 188.279 152.711C188.279 152.034 188.659 151.69 189.425 151.69H193.008C193.769 151.69 194.154 152.065 194.154 152.815V158.128C194.154 158.794 193.889 159.227 193.362 159.419C192.722 159.643 191.987 159.831 191.154 159.982C190.331 160.133 189.519 160.211 188.717 160.211Z" fill="black"/>
<path d="M199.206 160.167C198.274 160.167 197.81 159.688 197.81 158.729V145.875C197.81 144.917 198.274 144.438 199.206 144.438C200.133 144.438 200.602 144.917 200.602 145.875V158.729C200.602 159.688 200.133 160.167 199.206 160.167Z" fill="black"/>
<path d="M209.488 160.164C208.556 160.164 208.092 159.685 208.092 158.727V146.935H203.821C203.03 146.935 202.634 146.549 202.634 145.768C202.634 144.992 203.03 144.602 203.821 144.602H215.134C215.936 144.602 216.342 144.992 216.342 145.768C216.342 146.549 215.936 146.935 215.134 146.935H210.884V158.727C210.884 159.685 210.415 160.164 209.488 160.164Z" fill="black"/>
<path d="M224.757 160.208C222.643 160.208 221.028 159.661 219.903 158.563C218.788 157.469 218.236 155.844 218.236 153.688V145.854C218.236 144.911 218.705 144.438 219.653 144.438C220.58 144.438 221.049 144.911 221.049 145.854V153.667C221.049 155.057 221.361 156.099 221.986 156.792C222.622 157.474 223.549 157.813 224.757 157.813C227.215 157.813 228.445 156.432 228.445 153.667V145.854C228.445 144.911 228.908 144.438 229.84 144.438C230.757 144.438 231.215 144.911 231.215 145.854V153.688C231.215 155.844 230.663 157.469 229.57 158.563C228.486 159.661 226.882 160.208 224.757 160.208Z" fill="black"/>
<path d="M236.373 159.997C235.384 159.997 234.894 159.508 234.894 158.518V146.081C234.894 145.096 235.384 144.602 236.373 144.602H240.602C243.186 144.602 245.175 145.268 246.582 146.602C247.983 147.924 248.686 149.82 248.686 152.289C248.686 154.747 247.983 156.654 246.582 157.997C245.175 159.331 243.186 159.997 240.602 159.997H236.373ZM237.686 157.685H240.436C243.988 157.685 245.769 155.888 245.769 152.289C245.769 148.706 243.988 146.914 240.436 146.914H237.686V157.685Z" fill="black"/>
<path d="M253.347 160.167C252.415 160.167 251.951 159.688 251.951 158.729V145.875C251.951 144.917 252.415 144.438 253.347 144.438C254.274 144.438 254.743 144.917 254.743 145.875V158.729C254.743 159.688 254.274 160.167 253.347 160.167Z" fill="black"/>
<path d="M259.837 160.167C258.962 160.167 258.525 159.719 258.525 158.813V145.833C258.525 145.375 258.634 145.031 258.858 144.792C259.077 144.557 259.369 144.438 259.733 144.438C260.067 144.438 260.317 144.5 260.483 144.625C260.66 144.75 260.863 144.958 261.087 145.25L268.879 155.354V145.771C268.879 144.885 269.317 144.438 270.192 144.438C271.051 144.438 271.483 144.885 271.483 145.771V158.875C271.483 159.281 271.379 159.599 271.171 159.833C270.973 160.052 270.702 160.167 270.358 160.167C270.025 160.167 269.754 160.104 269.546 159.979C269.348 159.854 269.139 159.646 268.921 159.354L261.108 149.208V158.813C261.108 159.719 260.681 160.167 259.837 160.167Z" fill="black"/>
<path d="M275.422 160.167C274.906 160.167 274.536 159.995 274.318 159.646C274.109 159.302 274.12 158.875 274.359 158.375L280.109 145.604C280.302 145.188 280.531 144.891 280.797 144.708C281.073 144.531 281.385 144.438 281.734 144.438C282.068 144.438 282.364 144.531 282.63 144.708C282.906 144.891 283.135 145.188 283.318 145.604L289.109 158.375C289.344 158.891 289.359 159.323 289.151 159.667C288.953 160 288.609 160.167 288.109 160.167C287.703 160.167 287.385 160.068 287.151 159.875C286.927 159.682 286.734 159.385 286.568 158.979L285.463 156.438H277.963L276.88 158.979C276.698 159.396 276.505 159.703 276.297 159.896C276.088 160.073 275.797 160.167 275.422 160.167ZM281.693 147.646L278.922 154.208H284.505L281.734 147.646H281.693Z" fill="black"/>
<path d="M293.356 159.997C292.408 159.997 291.939 159.518 291.939 158.56V145.956C291.939 145.013 292.403 144.539 293.335 144.539C294.262 144.539 294.731 145.013 294.731 145.956V157.622H301.064C301.867 157.622 302.273 158.013 302.273 158.789C302.273 159.596 301.867 159.997 301.064 159.997H293.356Z" fill="black"/>
<path d="M312.441 159.997C311.451 159.997 310.962 159.508 310.962 158.518V146.081C310.962 145.096 311.451 144.602 312.441 144.602H316.67C319.254 144.602 321.243 145.268 322.649 146.602C324.05 147.924 324.754 149.82 324.754 152.289C324.754 154.747 324.05 156.654 322.649 157.997C321.243 159.331 319.254 159.997 316.67 159.997H312.441ZM313.754 157.685H316.504C320.056 157.685 321.837 155.888 321.837 152.289C321.837 148.706 320.056 146.914 316.504 146.914H313.754V157.685Z" fill="black"/>
<path d="M328.165 160.167C327.649 160.167 327.28 159.995 327.061 159.646C326.852 159.302 326.863 158.875 327.102 158.375L332.852 145.604C333.045 145.188 333.274 144.891 333.54 144.708C333.816 144.531 334.128 144.438 334.477 144.438C334.811 144.438 335.108 144.531 335.373 144.708C335.649 144.891 335.878 145.188 336.061 145.604L341.852 158.375C342.087 158.891 342.102 159.323 341.894 159.667C341.696 160 341.352 160.167 340.852 160.167C340.446 160.167 340.128 160.068 339.894 159.875C339.67 159.682 339.477 159.385 339.311 158.979L338.207 156.438H330.707L329.623 158.979C329.441 159.396 329.248 159.703 329.04 159.896C328.832 160.073 328.54 160.167 328.165 160.167ZM334.436 147.646L331.665 154.208H337.248L334.477 147.646H334.436Z" fill="black"/>
<path d="M349.787 160.164C348.854 160.164 348.391 159.685 348.391 158.727V146.935H344.12C343.328 146.935 342.933 146.549 342.933 145.768C342.933 144.992 343.328 144.602 344.12 144.602H355.433C356.235 144.602 356.641 144.992 356.641 145.768C356.641 146.549 356.235 146.935 355.433 146.935H351.183V158.727C351.183 159.685 350.714 160.164 349.787 160.164Z" fill="black"/>
<path d="M358.807 160.167C358.291 160.167 357.921 159.995 357.702 159.646C357.494 159.302 357.504 158.875 357.744 158.375L363.494 145.604C363.687 145.188 363.916 144.891 364.182 144.708C364.458 144.531 364.77 144.438 365.119 144.438C365.452 144.438 365.749 144.531 366.015 144.708C366.291 144.891 366.52 145.188 366.702 145.604L372.494 158.375C372.728 158.891 372.744 159.323 372.536 159.667C372.338 160 371.994 160.167 371.494 160.167C371.088 160.167 370.77 160.068 370.536 159.875C370.312 159.682 370.119 159.385 369.952 158.979L368.848 156.438H361.348L360.265 158.979C360.083 159.396 359.89 159.703 359.682 159.896C359.473 160.073 359.182 160.167 358.807 160.167ZM365.077 147.646L362.307 154.208H367.89L365.119 147.646H365.077Z" fill="black"/>
<path d="M386.95 160.211C385.976 160.211 385.023 160.107 384.096 159.898C383.179 159.68 382.377 159.352 381.7 158.919C381.367 158.701 381.158 158.43 381.075 158.107C381.002 157.789 381.033 157.492 381.158 157.211C381.283 156.919 381.476 156.721 381.742 156.607C382.018 156.497 382.33 156.555 382.679 156.773C383.314 157.148 383.992 157.43 384.7 157.607C385.419 157.773 386.169 157.857 386.95 157.857C388.101 157.857 388.939 157.669 389.471 157.294C389.997 156.909 390.262 156.409 390.262 155.794C390.262 155.284 390.075 154.878 389.7 154.586C389.325 154.294 388.684 154.06 387.783 153.878L385.387 153.357C382.648 152.773 381.283 151.372 381.283 149.148C381.283 148.19 381.533 147.357 382.033 146.648C382.544 145.93 383.252 145.372 384.158 144.982C385.059 144.596 386.101 144.398 387.283 144.398C388.158 144.398 388.981 144.513 389.762 144.732C390.554 144.94 391.262 145.263 391.887 145.69C392.179 145.888 392.351 146.138 392.408 146.44C392.476 146.732 392.439 147.013 392.304 147.273C392.179 147.523 391.971 147.701 391.679 147.794C391.398 147.878 391.075 147.815 390.7 147.607C390.158 147.305 389.606 147.086 389.054 146.961C388.497 146.826 387.898 146.753 387.262 146.753C386.262 146.753 385.476 146.971 384.908 147.398C384.335 147.815 384.054 148.367 384.054 149.044C384.054 149.576 384.226 149.997 384.575 150.315C384.919 150.622 385.518 150.857 386.367 151.023L388.742 151.523C390.184 151.831 391.262 152.315 391.971 152.982C392.679 153.638 393.033 154.503 393.033 155.586C393.033 156.503 392.783 157.315 392.283 158.023C391.783 158.721 391.075 159.263 390.158 159.648C389.252 160.023 388.184 160.211 386.95 160.211Z" fill="black"/>
<path d="M400.916 160.167C399.984 160.167 399.52 159.682 399.52 158.708V152.917L394.833 146.354C394.651 146.094 394.567 145.813 394.583 145.521C394.609 145.219 394.729 144.958 394.937 144.75C395.156 144.542 395.468 144.438 395.875 144.438C396.442 144.438 396.937 144.74 397.354 145.333L400.958 150.438L404.583 145.333C404.817 145.016 405.041 144.786 405.25 144.646C405.468 144.51 405.739 144.438 406.062 144.438C406.63 144.438 407.005 144.646 407.187 145.063C407.364 145.479 407.291 145.917 406.958 146.375L402.312 152.938V158.708C402.312 159.682 401.843 160.167 400.916 160.167Z" fill="black"/>
<path d="M415.057 160.211C414.083 160.211 413.13 160.107 412.203 159.898C411.286 159.68 410.484 159.352 409.807 158.919C409.474 158.701 409.266 158.43 409.182 158.107C409.109 157.789 409.141 157.492 409.266 157.211C409.391 156.919 409.583 156.721 409.849 156.607C410.125 156.497 410.438 156.555 410.786 156.773C411.422 157.148 412.099 157.43 412.807 157.607C413.526 157.773 414.276 157.857 415.057 157.857C416.208 157.857 417.047 157.669 417.578 157.294C418.104 156.909 418.37 156.409 418.37 155.794C418.37 155.284 418.182 154.878 417.807 154.586C417.432 154.294 416.792 154.06 415.891 153.878L413.495 153.357C410.755 152.773 409.391 151.372 409.391 149.148C409.391 148.19 409.641 147.357 410.141 146.648C410.651 145.93 411.359 145.372 412.266 144.982C413.167 144.596 414.208 144.398 415.391 144.398C416.266 144.398 417.089 144.513 417.87 144.732C418.661 144.94 419.37 145.263 419.995 145.69C420.286 145.888 420.458 146.138 420.516 146.44C420.583 146.732 420.547 147.013 420.411 147.273C420.286 147.523 420.078 147.701 419.786 147.794C419.505 147.878 419.182 147.815 418.807 147.607C418.266 147.305 417.714 147.086 417.161 146.961C416.604 146.826 416.005 146.753 415.37 146.753C414.37 146.753 413.583 146.971 413.016 147.398C412.443 147.815 412.161 148.367 412.161 149.044C412.161 149.576 412.333 149.997 412.682 150.315C413.026 150.622 413.625 150.857 414.474 151.023L416.849 151.523C418.292 151.831 419.37 152.315 420.078 152.982C420.786 153.638 421.141 154.503 421.141 155.586C421.141 156.503 420.891 157.315 420.391 158.023C419.891 158.721 419.182 159.263 418.266 159.648C417.359 160.023 416.292 160.211 415.057 160.211Z" fill="black"/>
<path d="M429.066 160.164C428.134 160.164 427.67 159.685 427.67 158.727V146.935H423.399C422.608 146.935 422.212 146.549 422.212 145.768C422.212 144.992 422.608 144.602 423.399 144.602H434.712C435.514 144.602 435.92 144.992 435.92 145.768C435.92 146.549 435.514 146.935 434.712 146.935H430.462V158.727C430.462 159.685 429.993 160.164 429.066 160.164Z" fill="black"/>
<path d="M439.419 159.997C438.429 159.997 437.939 159.508 437.939 158.518V146.081C437.939 145.096 438.429 144.602 439.419 144.602H447.21C447.971 144.602 448.356 144.971 448.356 145.706C448.356 146.456 447.971 146.831 447.21 146.831H440.627V151.06H446.731C447.492 151.06 447.877 151.435 447.877 152.185C447.877 152.924 447.492 153.289 446.731 153.289H440.627V157.768H447.21C447.971 157.768 448.356 158.143 448.356 158.893C448.356 159.633 447.971 159.997 447.21 159.997H439.419Z" fill="black"/>
<path d="M452.705 160.167C451.856 160.167 451.435 159.74 451.435 158.875V145.75C451.435 144.875 451.872 144.438 452.747 144.438C453.106 144.438 453.393 144.51 453.601 144.646C453.81 144.786 454.002 145.021 454.185 145.354L459.226 154.667L464.268 145.354C464.445 145.021 464.632 144.786 464.83 144.646C465.039 144.51 465.32 144.438 465.685 144.438C466.528 144.438 466.955 144.875 466.955 145.75V158.875C466.955 159.74 466.528 160.167 465.685 160.167C464.836 160.167 464.414 159.74 464.414 158.875V149.625L460.31 157.125C460.169 157.365 460.018 157.542 459.851 157.667C459.695 157.781 459.481 157.833 459.205 157.833C458.924 157.833 458.695 157.771 458.518 157.646C458.351 157.521 458.195 157.349 458.06 157.125L453.955 149.667V158.875C453.955 159.74 453.539 160.167 452.705 160.167Z" fill="black"/>
<path fill-rule="evenodd" clip-rule="evenodd" d="M37.1351 76C30.4331 76 25 81.4331 25 88.1351V160.865C25 167.567 30.4331 173 37.1351 173H89.2352C95.9372 173 101.37 167.567 101.37 160.865V88.1351C101.37 81.4331 95.9372 76 89.2352 76H37.1351ZM50.594 93.0718C50.5985 92.0438 51.4354 91.214 52.4634 91.2185L62.0072 91.2598C62.4181 91.2616 62.7974 91.3964 63.1043 91.6232C63.6211 91.9536 63.9637 92.5324 63.9637 93.1913V100.801C63.9637 101.058 63.9117 101.302 63.8177 101.524C63.6475 102.381 62.89 103.025 61.9841 103.021L61.7451 103.02L62.8638 105.105C63.3495 106.011 63.0093 107.139 62.1038 107.624C61.1983 108.11 60.0704 107.77 59.5847 106.864L57.863 103.655C57.7508 103.446 57.6827 103.225 57.6554 103.002L54.0894 102.987V105.759C54.0894 106.787 53.2562 107.62 52.2283 107.62C51.2004 107.62 50.3671 106.787 50.3671 105.759V101.23C50.3671 100.461 50.8336 99.8008 51.4991 99.5171C51.7792 99.3509 52.1065 99.256 52.4559 99.2575L60.2443 99.2908V94.9749L52.4473 94.9411C51.4193 94.9367 50.5896 94.0997 50.594 93.0718ZM54.4669 112.705L54.5287 123.384L58.1369 123.395C59.1658 123.398 59.9975 124.235 59.9945 125.263C59.9915 126.292 59.1549 127.124 58.126 127.121L52.8318 127.106C52.7844 127.109 52.7365 127.112 52.6881 127.112C51.6597 127.118 50.8212 126.289 50.8153 125.261L50.7428 112.727C50.7369 111.698 51.5657 110.86 52.5941 110.854C53.6225 110.848 54.461 111.677 54.4669 112.705ZM45.8722 145.191C45.8722 144.163 46.7053 143.33 47.733 143.33H57.2797C58.3074 143.33 59.1405 144.163 59.1405 145.191C59.1405 146.218 58.3074 147.051 57.2797 147.051H47.733C46.7053 147.051 45.8722 146.218 45.8722 145.191ZM47.733 138.411C46.7053 138.411 45.8722 139.245 45.8722 140.272C45.8722 141.3 46.7053 142.133 47.733 142.133H62.7C63.7277 142.133 64.5607 141.3 64.5607 140.272C64.5607 139.245 63.7277 138.411 62.7 138.411H47.733ZM58.1897 110.439C57.1617 110.434 56.3248 111.264 56.3204 112.292C56.3159 113.31 57.1296 114.141 58.1437 114.161V120.311C58.1437 121.338 58.9763 122.171 60.0033 122.171C61.0303 122.171 61.8629 121.338 61.8629 120.311V114.177L65.9827 114.195V123.41L63.0137 123.391C61.987 123.384 61.1495 124.212 61.143 125.238C61.1366 126.265 61.9637 127.103 62.9904 127.109L67.6902 127.138C68.3464 127.143 68.9254 126.806 69.2594 126.295C69.535 125.97 69.7012 125.55 69.7012 125.092V112.545C69.7012 112.175 69.593 111.83 69.4064 111.54C69.1082 110.916 68.4722 110.483 67.7339 110.48L58.1897 110.439ZM75.1777 116.769L75.1533 114.237L78.2198 114.263C79.2485 114.272 80.0897 113.446 80.0986 112.417C80.1075 111.388 79.2808 110.547 78.252 110.538L73.4873 110.497C72.9243 110.492 72.4175 110.737 72.0725 111.129C71.6675 111.474 71.4127 111.99 71.4183 112.563L71.476 118.556C71.4826 119.241 71.8596 119.837 72.4152 120.154C72.7136 120.361 73.0755 120.482 73.466 120.484L81.3099 120.518L81.3369 123.296L73.4819 123.262C72.454 123.258 71.6171 124.088 71.6127 125.116C71.6082 126.144 72.438 126.981 73.466 126.985L83.0098 127.026C83.4852 127.028 83.9199 126.851 84.2501 126.559C84.7513 126.222 85.0787 125.647 85.0724 124.998L85.0142 119.006C85.0114 118.714 84.9415 118.438 84.8192 118.194C84.6118 117.396 83.8886 116.806 83.0257 116.802L75.1777 116.769ZM67.1203 96.2796C68.1474 96.2796 68.98 97.1122 68.98 98.1393V105.749C68.98 106.776 68.1474 107.609 67.1203 107.609C66.0933 107.609 65.2607 106.776 65.2607 105.749V98.1393C65.2607 97.1122 66.0933 96.2796 67.1203 96.2796ZM52.5092 129.311C53.5365 129.311 54.3694 130.144 54.3694 131.171V135.542C54.3694 136.57 53.5365 137.402 52.5092 137.402C51.4819 137.402 50.6491 136.57 50.6491 135.542V131.171C50.6491 130.144 51.4819 129.311 52.5092 129.311ZM59.3304 131.171C59.3304 130.144 58.4976 129.311 57.4703 129.311C56.443 129.311 55.6102 130.144 55.6102 131.171V135.542C55.6102 136.57 56.443 137.402 57.4703 137.402C58.4976 137.402 59.3304 136.57 59.3304 135.542V131.171ZM62.8418 129.311C63.8692 129.311 64.702 130.144 64.702 131.171V135.542C64.702 136.57 63.8692 137.402 62.8418 137.402C61.8145 137.402 60.9817 136.57 60.9817 135.542V131.171C60.9817 130.144 61.8145 129.311 62.8418 129.311ZM69.9593 131.171C69.9593 130.144 69.1265 129.311 68.0992 129.311C67.0718 129.311 66.239 130.144 66.239 131.171V135.542C66.239 136.57 67.0718 137.402 68.0992 137.402C69.1265 137.402 69.9593 136.57 69.9593 135.542V131.171ZM73.4638 129.311C74.4911 129.311 75.3239 130.144 75.3239 131.171V135.542C75.3239 136.57 74.4911 137.402 73.4638 137.402C72.4364 137.402 71.6036 136.57 71.6036 135.542V131.171C71.6036 130.144 72.4364 129.311 73.4638 129.311ZM67.1898 94.7656C68.1505 94.7656 68.9292 93.9869 68.9292 93.0263C68.9292 92.0657 68.1505 91.2869 67.1898 91.2869C66.2292 91.2869 65.4505 92.0657 65.4505 93.0263C65.4505 93.9869 66.2292 94.7656 67.1898 94.7656ZM74.754 106.058C74.754 107.018 73.9752 107.797 73.0146 107.797C72.054 107.797 71.2752 107.018 71.2752 106.058C71.2752 105.097 72.054 104.318 73.0146 104.318C73.9752 104.318 74.754 105.097 74.754 106.058ZM83.0463 114.186C84.0069 114.186 84.7857 113.408 84.7857 112.447C84.7857 111.486 84.0069 110.708 83.0463 110.708C82.0857 110.708 81.307 111.486 81.307 112.447C81.307 113.408 82.0857 114.186 83.0463 114.186ZM69.9001 140.278C69.9001 141.239 69.1214 142.017 68.1608 142.017C67.2002 142.017 66.4214 141.239 66.4214 140.278C66.4214 139.317 67.2002 138.539 68.1608 138.539C69.1214 138.539 69.9001 139.317 69.9001 140.278ZM57.5626 156.498C58.5232 156.498 59.3019 155.719 59.3019 154.758C59.3019 153.798 58.5232 153.019 57.5626 153.019C56.6019 153.019 55.8232 153.798 55.8232 154.758C55.8232 155.719 56.6019 156.498 57.5626 156.498ZM59.3019 159.29C59.3019 160.251 58.5232 161.03 57.5626 161.03C56.6019 161.03 55.8232 160.251 55.8232 159.29C55.8232 158.33 56.6019 157.551 57.5626 157.551C58.5232 157.551 59.3019 158.33 59.3019 159.29ZM62.336 156.498C63.2967 156.498 64.0754 155.719 64.0754 154.758C64.0754 153.798 63.2967 153.019 62.336 153.019C61.3754 153.019 60.5967 153.798 60.5967 154.758C60.5967 155.719 61.3754 156.498 62.336 156.498ZM64.0754 159.29C64.0754 160.251 63.2967 161.03 62.336 161.03C61.3754 161.03 60.5967 160.251 60.5967 159.29C60.5967 158.33 61.3754 157.551 62.336 157.551C63.2967 157.551 64.0754 158.33 64.0754 159.29ZM43.0815 146.869C44.0421 146.869 44.8208 146.09 44.8208 145.13C44.8208 144.169 44.0421 143.39 43.0815 143.39C42.1208 143.39 41.3421 144.169 41.3421 145.13C41.3421 146.09 42.1208 146.869 43.0815 146.869ZM54.0437 97.0754C54.0437 98.036 53.2649 98.8147 52.3043 98.8147C51.3437 98.8147 50.5649 98.036 50.5649 97.0754C50.5649 96.1148 51.3437 95.336 52.3043 95.336C53.2649 95.336 54.0437 96.1148 54.0437 97.0754Z" fill="url(#paint0_linear_119_2189)"/>
<defs>
<linearGradient id="paint0_linear_119_2189" x1="29.8945" y1="76" x2="92.4712" y2="167.296" gradientUnits="userSpaceOnUse">
<stop offset="0.09375" stop-color="#EF93E9"/>
<stop offset="0.505208" stop-color="#541690"/>
<stop offset="0.838542" stop-color="#0EB393"/>
<stop offset="0.979167" stop-color="#3ED1DF"/>
</linearGradient>
</defs>
</svg>
